<svg viewBox="0 0 900 900" xmlns="http://www.w3.org/2000/svg"><path d="M-2.145 341.113L276.754 341.113L276.754 577.105L-2.145 577.105ZM-2.145 341.113" fill="currentColor"/><path d="M341.113-2.145L577.105-2.145L577.105 276.754L341.113 276.754ZM341.113-2.145" fill="currentColor"/><path d="M341.113 341.113L577.105 341.113L577.105 577.105L341.113 577.105ZM341.113 341.113" fill="currentColor"/><path d="M341.113 641.469L577.105 641.469L577.105 920.367L341.113 920.367ZM341.113 641.469" fill="currentColor"/><path d="M641.469 341.113L920.367 341.113L920.367 577.105L641.469 577.105ZM641.469 341.113" fill="currentColor"/><path d="M641.469 641.469L641.469 920.367L802.371 920.367C804.301 920.363 806.23 920.316 808.16 920.219C810.086 920.125 812.012 919.98 813.934 919.789C815.855 919.602 817.77 919.363 819.68 919.078C821.59 918.793 823.492 918.461 825.383 918.086C827.277 917.707 829.16 917.285 831.035 916.812C832.906 916.344 834.766 915.828 836.613 915.266C838.461 914.703 840.293 914.098 842.109 913.449C843.93 912.797 845.73 912.102 847.512 911.363C849.297 910.621 851.059 909.84 852.805 909.012C854.551 908.188 856.273 907.32 857.977 906.41C859.68 905.496 861.359 904.547 863.012 903.555C864.668 902.559 866.301 901.527 867.906 900.453C869.512 899.383 871.09 898.27 872.641 897.121C874.188 895.969 875.711 894.781 877.203 893.555C878.695 892.332 880.156 891.07 881.586 889.773C883.02 888.477 884.414 887.145 885.781 885.781C887.145 884.414 888.477 883.02 889.773 881.586C891.07 880.156 892.332 878.695 893.555 877.203C894.781 875.711 895.969 874.188 897.121 872.641C898.27 871.09 899.383 869.512 900.453 867.906C901.527 866.301 902.559 864.668 903.555 863.016C904.547 861.359 905.496 859.68 906.41 857.977C907.32 856.273 908.188 854.551 909.012 852.805C909.84 851.059 910.621 849.297 911.363 847.512C912.102 845.73 912.797 843.93 913.449 842.109C914.098 840.293 914.703 838.461 915.266 836.613C915.828 834.766 916.344 832.906 916.812 831.035C917.285 829.16 917.707 827.277 918.086 825.383C918.461 823.492 918.793 821.59 919.078 819.68C919.363 817.77 919.602 815.855 919.789 813.934C919.98 812.012 920.125 810.086 920.219 808.16C920.316 806.23 920.363 804.301 920.367 802.371L920.367 641.469ZM641.469 641.469" fill="currentColor"/><path d="M276.754 641.469L-2.145 641.469L-2.145 802.371C-2.145 804.301-2.094 806.23-2 808.16C-1.902 810.086-1.762 812.012-1.57 813.934C-1.379 815.855-1.141 817.77-0.855 819.68C-0.574 821.59-0.242 823.492 0.137 825.383C0.516 827.277 0.938 829.16 1.406 831.035C1.879 832.906 2.395 834.766 2.953 836.613C3.516 838.461 4.121 840.293 4.773 842.109C5.426 843.93 6.121 845.73 6.859 847.512C7.598 849.297 8.383 851.059 9.207 852.805C10.035 854.551 10.902 856.273 11.812 857.977C12.723 859.68 13.676 861.359 14.668 863.016C15.66 864.668 16.695 866.301 17.766 867.906C18.84 869.512 19.953 871.09 21.102 872.641C22.254 874.188 23.441 875.711 24.664 877.203C25.891 878.695 27.152 880.156 28.445 881.586C29.742 883.02 31.074 884.414 32.441 885.781C33.805 887.145 35.203 888.477 36.633 889.773C38.062 891.07 39.523 892.332 41.02 893.555C42.512 894.781 44.031 895.969 45.582 897.121C47.133 898.27 48.711 899.383 50.316 900.453C51.922 901.527 53.551 902.559 55.207 903.555C56.863 904.547 58.543 905.496 60.246 906.41C61.945 907.32 63.672 908.188 65.414 909.012C67.16 909.84 68.926 910.621 70.707 911.363C72.492 912.102 74.293 912.797 76.109 913.449C77.93 914.098 79.762 914.703 81.609 915.266C83.453 915.828 85.316 916.344 87.188 916.812C89.059 917.285 90.941 917.707 92.836 918.086C94.73 918.461 96.633 918.793 98.539 919.078C100.449 919.363 102.367 919.602 104.289 919.789C106.207 919.98 108.133 920.125 110.062 920.219C111.988 920.316 113.918 920.363 115.852 920.367L276.754 920.367ZM276.754 641.469" fill="currentColor"/><path d="M276.754 276.754L276.754-2.145L115.852-2.145C113.918-2.145 111.988-2.094 110.062-2C108.133-1.902 106.207-1.762 104.289-1.57C102.367-1.379 100.449-1.141 98.539-0.855C96.633-0.574 94.73-0.242 92.836 0.137C90.941 0.516 89.059 0.938 87.188 1.406C85.316 1.879 83.453 2.395 81.609 2.953C79.762 3.516 77.93 4.121 76.109 4.773C74.293 5.426 72.492 6.121 70.707 6.859C68.926 7.598 67.16 8.383 65.414 9.207C63.672 10.035 61.945 10.902 60.246 11.812C58.543 12.723 56.863 13.676 55.207 14.668C53.551 15.66 51.922 16.695 50.316 17.766C48.711 18.84 47.133 19.953 45.582 21.102C44.031 22.254 42.512 23.441 41.02 24.664C39.523 25.891 38.062 27.152 36.633 28.445C35.203 29.742 33.805 31.074 32.441 32.441C31.074 33.805 29.742 35.203 28.445 36.633C27.152 38.062 25.891 39.523 24.664 41.02C23.441 42.512 22.254 44.031 21.102 45.582C19.953 47.133 18.84 48.711 17.766 50.316C16.695 51.922 15.66 53.551 14.668 55.207C13.676 56.863 12.723 58.543 11.812 60.246C10.902 61.945 10.035 63.672 9.207 65.414C8.383 67.16 7.598 68.926 6.859 70.707C6.121 72.492 5.426 74.293 4.773 76.109C4.121 77.93 3.516 79.762 2.953 81.609C2.395 83.453 1.879 85.316 1.406 87.188C0.938 89.059 0.516 90.941 0.137 92.836C-0.242 94.73-0.574 96.633-0.855 98.543C-1.141 100.449-1.379 102.367-1.57 104.289C-1.762 106.207-1.902 108.133-2 110.062C-2.094 111.988-2.145 113.918-2.145 115.852L-2.145 276.754ZM276.754 276.754" fill="currentColor"/><path d="M641.469 276.754L920.367 276.754L920.367 115.852C920.363 113.918 920.316 111.988 920.219 110.062C920.125 108.133 919.98 106.207 919.789 104.289C919.602 102.367 919.363 100.449 919.078 98.543C918.793 96.633 918.461 94.73 918.086 92.836C917.707 90.941 917.285 89.059 916.812 87.188C916.344 85.316 915.828 83.453 915.266 81.609C914.703 79.762 914.098 77.93 913.449 76.109C912.797 74.293 912.102 72.492 911.363 70.707C910.621 68.926 909.84 67.16 909.012 65.414C908.188 63.672 907.32 61.945 906.41 60.246C905.496 58.543 904.547 56.863 903.555 55.207C902.559 53.551 901.527 51.922 900.453 50.316C899.383 48.711 898.27 47.133 897.121 45.582C895.969 44.031 894.781 42.512 893.555 41.02C892.332 39.523 891.07 38.062 889.773 36.633C888.477 35.203 887.145 33.805 885.781 32.441C884.414 31.074 883.02 29.742 881.586 28.445C880.156 27.152 878.695 25.891 877.203 24.664C875.711 23.441 874.188 22.254 872.641 21.102C871.09 19.953 869.512 18.84 867.906 17.766C866.301 16.695 864.668 15.66 863.016 14.668C861.359 13.676 859.68 12.723 857.977 11.812C856.273 10.902 854.551 10.035 852.805 9.207C851.059 8.383 849.297 7.598 847.512 6.859C845.73 6.121 843.93 5.426 842.109 4.773C840.293 4.121 838.461 3.516 836.613 2.953C834.766 2.395 832.906 1.879 831.035 1.406C829.16 0.938 827.277 0.516 825.383 0.137C823.492-0.242 821.59-0.574 819.68-0.855C817.77-1.141 815.855-1.379 813.934-1.57C812.012-1.762 810.086-1.902 808.16-2C806.23-2.094 804.301-2.145 802.371-2.145L641.469-2.145ZM641.469 276.754" fill="currentColor"/></svg>